<?xml version="1.0" encoding="UTF-8"?><svg id="Layer_1" xmlns="http://www.w3.org/2000/svg" width="140" height="140" viewBox="0 0 140 140"><defs><style>.cls-1{fill:#fff;stroke-width:0px;}</style></defs><path class="cls-1" d="M59.711,69.527c0,.348.01.567.014.718s.003.234-.02.311c-.709,2.443-.428,4.188.554,5.551s2.666,2.342,4.763,3.253c3.438,1.492,6.81,3.139,10.157,4.843s6.667,3.466,10.002,5.188c.821.424,1.517.634,2.179.565s1.288-.417,1.971-1.107c2.784-2.816,5.937-4.922,9.354-6.325s7.097-2.104,10.935-2.11c5.406-.008,10.386,1.07,14.731,3.343s8.054,5.742,10.918,10.516c3.706,6.177,5.215,12.641,4.597,18.904-.618,6.264-3.363,12.327-8.165,17.703-2.925,3.273-6.308,5.59-10.044,7.07-3.736,1.48-7.825,2.122-12.162,2.045-3.521-.062-6.879-.598-10.03-1.718s-6.095-2.823-8.789-5.219c-3.977-3.538-6.778-7.535-8.465-11.957s-2.261-9.267-1.783-14.5c.094-1.031.002-1.785-.331-2.39s-.907-1.059-1.778-1.49c-3.924-1.945-7.842-3.902-11.75-5.88s-7.806-3.975-11.689-6c-.937-.488-1.692-.669-2.406-.547s-1.384.547-2.151,1.27c-4.419,4.167-9.244,6.743-14.378,7.819s-10.576.651-16.229-1.182c-5.135-1.666-9.268-4.412-12.405-8.034s-5.279-8.123-6.433-13.296c-1.415-6.341-1.107-12.22.843-17.481s5.544-9.904,10.703-13.772c3.826-2.868,7.978-4.604,12.345-5.286s8.948-.312,13.63,1.031c2.426.696,4.697,1.619,6.785,2.839s3.992,2.737,5.684,4.619c.484.539.958.886,1.483,1.012s1.098.031,1.783-.315c4.168-2.106,8.348-4.188,12.524-6.28,4.175-2.091,8.347-4.192,12.497-6.332.338-.174.656-.601.88-1.088s.355-1.034.319-1.448c-.5-5.792.119-11.101,2.034-15.868,1.915-4.767,5.125-8.991,9.806-12.61,2.832-2.19,5.869-3.746,9.078-4.706,3.209-.96,6.59-1.326,10.11-1.134,5.934.322,11.053,1.956,15.338,4.836,4.285,2.88,7.735,7.007,10.333,12.314,1.574,3.216,2.487,6.54,2.778,9.932s-.042,6.852-.96,10.34c-1.806,6.859-5.353,12.272-10.146,16.052-4.793,3.779-10.832,5.925-17.621,6.247-3.936.187-7.744-.311-11.283-1.584s-6.809-3.322-9.67-6.236c-.988-1.007-1.861-1.562-2.799-1.698s-1.943.148-3.196.82c-3.637,1.951-7.306,3.844-10.999,5.693s-7.407,3.653-11.135,5.425c-1.043.496-1.787,1.017-2.21,1.699s-.526,1.524-.287,2.662c.119.566.157,1.149.17,1.671s0,.982.018,1.303ZM94.974,29.506c-.037,4.257,1.64,8.16,4.354,11.002s6.465,4.621,10.577,4.631c4.03.009,7.811-1.769,10.587-4.569s4.544-6.622,4.548-10.702c.004-4.118-1.66-7.859-4.356-10.582s-6.424-4.427-10.548-4.471c-4.185-.044-7.958,1.562-10.693,4.212s-4.433,6.345-4.468,10.479ZM45.064,70.293c-.221-4.587-1.859-8.42-4.525-11.092s-6.362-4.182-10.699-4.125c-4.513.06-8.22,1.68-10.812,4.406s-4.068,6.559-4.118,11.043c-.044,3.942,1.729,7.61,4.507,10.293s6.562,4.38,10.542,4.382c4.028.001,7.826-1.758,10.606-4.502s4.542-6.471,4.499-10.405ZM110.007,125.286c4.091-.003,7.878-1.771,10.63-4.564s4.47-6.61,4.423-10.71c-.047-4.11-1.771-7.831-4.515-10.519s-6.509-4.343-10.637-4.323c-4.193.02-7.924,1.664-10.608,4.347s-4.323,6.405-4.331,10.583c-.008,4.203,1.668,8.001,4.387,10.747s6.484,4.442,10.65,4.439Z"/></svg>