<svg width="24" height="24" viewBox="0 0 24 24" fill="none" xmlns="http://www.w3.org/2000/svg">
<path d="M18.1174 6.00894C17.04 5.30651 16.2625 4.18262 16.0199 2.87246C15.9675 2.5894 15.9387 2.29807 15.9387 2H12.5003L12.4948 15.78C12.437 17.3231 11.1669 18.5616 9.60999 18.5616C9.12608 18.5616 8.67043 18.4406 8.26925 18.2295C7.34926 17.7454 6.71966 16.781 6.71966 15.6713C6.71966 14.0775 8.01633 12.7808 9.60999 12.7808C9.90749 12.7808 10.1929 12.8299 10.4628 12.9145V9.40424C10.1835 9.3662 9.89961 9.34243 9.60999 9.34243C6.12025 9.34243 3.28125 12.1816 3.28125 15.6713C3.28125 17.8124 4.351 19.7072 5.98303 20.853C7.01102 21.5747 8.26143 22 9.60999 22C13.0997 22 15.9387 19.161 15.9387 15.6713V8.68367C17.2873 9.65161 18.9396 10.222 20.7224 10.222V6.7836C19.762 6.7836 18.8676 6.49808 18.1174 6.00894Z" fill="black"/>
</svg>
